%
M48
M72
T01C0.0236
T02C0.0320
T03C0.0400
T04C0.0440
%
T01
X4100Y3100
X4100Y6600
X4100Y9600
X5600Y10100
X6100Y10600
X4600Y11600
X4100Y12100
X6600Y14600
X5600Y15600
X4100Y17600
X4100Y19600
X6600Y19600
X8100Y20600
X11600Y17600
X12600Y18600
X11600Y15600
X12600Y15100
X10600Y13100
X9100Y12600
X8600Y12100
X7600Y8600
X11100Y5600
X12100Y5600
X13100Y5100
X14100Y4600
X13100Y3600
X11600Y3100
X13100Y1100
X14600Y2100
X13600Y10100
X14100Y11100
X12600Y11100
X12100Y10100
X14600Y13100
X17600Y14600
X18100Y13600
X18600Y13100
X21100Y15100
X20600Y16600
X19600Y16100
X18600Y17100
X18100Y16600
X9600Y15600
X8600Y16100
T02
X8600Y18600
X7600Y18600
X9600Y18600
X10600Y18600
X10600Y21600
X9600Y21600
X8600Y21600
X7600Y21600
T03
X1100Y2100
X1100Y3100
X1100Y4100
X1100Y5100
X1100Y7100
X1100Y8100
X1100Y9100
X1100Y10100
X1100Y13100
X1100Y14100
X1100Y15100
X1100Y16100
X1100Y19100
X1100Y21600
X12600Y21600
X13600Y21600
X14600Y21600
X15600Y21600
X18600Y21600
X19600Y21600
X20600Y21600
X21600Y21600
X20600Y10100
X17600Y10100
X17600Y6600
X20600Y6600
X20600Y3100
X17600Y3100
X10100Y1100
X9100Y1100
X8100Y1100
X7100Y1100
T04
X6600Y21600
X2600Y21600
M30
