G75*
%MOIN*%
%OFA0B0*%
%FSLAX25Y25*%
%IPPOS*%
%LPD*%
%AMOC8*
5,1,8,0,0,1.08239X$1,22.5*
%
%ADD10C,0.00000*%
%ADD11C,0.00600*%
%ADD12OC8,0.06400*%
%ADD13R,0.06299X0.07087*%
%ADD14C,0.06800*%
%ADD15R,0.07874X0.06299*%
%ADD16R,0.06299X0.07874*%
%ADD17R,0.05000X0.02200*%
%ADD18R,0.08600X0.02200*%
%ADD19R,0.02200X0.08600*%
%ADD20C,0.05600*%
%ADD21C,0.01600*%
%ADD22OC8,0.04362*%
D10*
X0001000Y0001000D02*
X0001000Y0225961D01*
X0224701Y0225961D01*
X0224701Y0001000D01*
X0001000Y0001000D01*
D11*
X0046300Y0036867D02*
X0046867Y0036300D01*
X0048001Y0036300D01*
X0048569Y0036867D01*
X0048569Y0038001D01*
X0048001Y0038569D01*
X0047434Y0038569D01*
X0046300Y0038001D01*
X0046300Y0039703D01*
X0048569Y0039703D01*
X0111300Y0008001D02*
X0111300Y0006867D01*
X0111867Y0006300D01*
X0113001Y0006300D01*
X0113569Y0006867D01*
X0113569Y0007434D01*
X0113001Y0008001D01*
X0111300Y0008001D01*
X0112434Y0009136D01*
X0113569Y0009703D01*
X0181300Y0041867D02*
X0181867Y0041300D01*
X0183001Y0041300D01*
X0183569Y0041867D01*
X0183569Y0043001D01*
X0183001Y0043569D01*
X0182434Y0043569D01*
X0181300Y0043001D01*
X0181300Y0044703D01*
X0183569Y0044703D01*
X0211300Y0043001D02*
X0213001Y0043001D01*
X0213569Y0042434D01*
X0213569Y0041867D01*
X0213001Y0041300D01*
X0211867Y0041300D01*
X0211300Y0041867D01*
X0211300Y0043001D01*
X0212434Y0044136D01*
X0213569Y0044703D01*
X0213001Y0076300D02*
X0213001Y0079703D01*
X0211300Y0078001D01*
X0213569Y0078001D01*
X0183569Y0077434D02*
X0183569Y0076867D01*
X0183001Y0076300D01*
X0181867Y0076300D01*
X0181300Y0076867D01*
X0182434Y0078001D02*
X0183001Y0078001D01*
X0183569Y0077434D01*
X0183001Y0078001D02*
X0183569Y0078569D01*
X0183569Y0079136D01*
X0183001Y0079703D01*
X0181867Y0079703D01*
X0181300Y0079136D01*
X0181300Y0111300D02*
X0183569Y0111300D01*
X0182434Y0111300D02*
X0182434Y0114703D01*
X0181300Y0113569D01*
X0211300Y0114136D02*
X0211867Y0114703D01*
X0213001Y0114703D01*
X0213569Y0114136D01*
X0213569Y0113569D01*
X0211300Y0111300D01*
X0213569Y0111300D01*
X0178001Y0216300D02*
X0178001Y0219703D01*
X0176300Y0218001D01*
X0178569Y0218001D01*
X0118569Y0217434D02*
X0118569Y0216867D01*
X0118001Y0216300D01*
X0116867Y0216300D01*
X0116300Y0216867D01*
X0117434Y0218001D02*
X0118001Y0218001D01*
X0118569Y0217434D01*
X0118001Y0218001D02*
X0118569Y0218569D01*
X0118569Y0219136D01*
X0118001Y0219703D01*
X0116867Y0219703D01*
X0116300Y0219136D01*
X0007434Y0174703D02*
X0007434Y0171300D01*
X0006300Y0171300D02*
X0008569Y0171300D01*
X0006300Y0173569D02*
X0007434Y0174703D01*
X0006867Y0114703D02*
X0006300Y0114136D01*
X0006867Y0114703D02*
X0008001Y0114703D01*
X0008569Y0114136D01*
X0008569Y0113569D01*
X0006300Y0111300D01*
X0008569Y0111300D01*
D12*
X0011000Y0101000D03*
X0011000Y0091000D03*
X0011000Y0081000D03*
X0011000Y0071000D03*
X0011000Y0051000D03*
X0011000Y0041000D03*
X0011000Y0031000D03*
X0011000Y0021000D03*
X0071000Y0011000D03*
X0081000Y0011000D03*
X0091000Y0011000D03*
X0101000Y0011000D03*
X0176000Y0031000D03*
X0206000Y0031000D03*
X0206000Y0066000D03*
X0176000Y0066000D03*
X0176000Y0101000D03*
X0206000Y0101000D03*
X0206000Y0216000D03*
X0216000Y0216000D03*
X0196000Y0216000D03*
X0186000Y0216000D03*
X0156000Y0216000D03*
X0146000Y0216000D03*
X0136000Y0216000D03*
X0126000Y0216000D03*
X0011000Y0216000D03*
X0011000Y0191000D03*
X0011000Y0161000D03*
X0011000Y0151000D03*
X0011000Y0141000D03*
X0011000Y0131000D03*
D13*
X0035488Y0186000D03*
X0046512Y0186000D03*
X0021512Y0206000D03*
X0010488Y0206000D03*
X0095488Y0176000D03*
X0106512Y0176000D03*
D14*
X0066000Y0216000D03*
X0026000Y0216000D03*
D15*
X0071000Y0166512D03*
X0071000Y0155488D03*
X0091000Y0146512D03*
X0091000Y0135488D03*
X0106000Y0140488D03*
X0106000Y0151512D03*
X0106000Y0116512D03*
X0106000Y0105488D03*
X0091000Y0100488D03*
X0091000Y0111512D03*
X0051000Y0076512D03*
X0051000Y0065488D03*
X0076000Y0051512D03*
X0076000Y0040488D03*
X0076000Y0031512D03*
X0076000Y0020488D03*
X0061000Y0020488D03*
X0061000Y0031512D03*
X0046000Y0021512D03*
X0046000Y0010488D03*
X0091000Y0020488D03*
X0091000Y0031512D03*
X0106000Y0031512D03*
X0106000Y0020488D03*
X0046000Y0135488D03*
X0046000Y0146512D03*
X0121000Y0195488D03*
X0121000Y0206512D03*
X0136000Y0206512D03*
X0136000Y0195488D03*
X0151000Y0195488D03*
X0151000Y0206512D03*
X0166000Y0206512D03*
X0166000Y0195488D03*
X0181000Y0195488D03*
X0181000Y0206512D03*
X0196000Y0206512D03*
X0196000Y0195488D03*
X0211000Y0195488D03*
X0211000Y0206512D03*
X0216000Y0176512D03*
X0216000Y0165488D03*
X0186000Y0156512D03*
X0186000Y0145488D03*
D16*
X0190488Y0181000D03*
X0201512Y0181000D03*
X0176512Y0181000D03*
X0165488Y0181000D03*
X0146512Y0181000D03*
X0135488Y0181000D03*
X0121512Y0166000D03*
X0110488Y0166000D03*
X0056512Y0166000D03*
X0045488Y0166000D03*
X0031512Y0171000D03*
X0020488Y0171000D03*
X0020488Y0156000D03*
X0031512Y0156000D03*
X0031512Y0141000D03*
X0020488Y0141000D03*
X0020488Y0126000D03*
X0031512Y0126000D03*
X0031512Y0111000D03*
X0020488Y0111000D03*
X0020488Y0096000D03*
X0031512Y0096000D03*
X0031512Y0081000D03*
X0020488Y0081000D03*
X0020488Y0066000D03*
X0031512Y0066000D03*
X0031512Y0051000D03*
X0040488Y0051000D03*
X0051512Y0051000D03*
X0031512Y0036000D03*
X0020488Y0036000D03*
X0020488Y0021000D03*
X0031512Y0021000D03*
X0020488Y0051000D03*
X0065488Y0076000D03*
X0076512Y0076000D03*
X0090488Y0046000D03*
X0101512Y0046000D03*
X0110488Y0046000D03*
X0121512Y0046000D03*
D17*
X0041100Y0202300D03*
X0041100Y0206000D03*
X0041100Y0209700D03*
X0030900Y0209700D03*
X0030900Y0206000D03*
X0030900Y0202300D03*
D18*
X0056700Y0141000D03*
X0056700Y0136000D03*
X0056700Y0131000D03*
X0056700Y0126000D03*
X0056700Y0121000D03*
X0056700Y0116000D03*
X0056700Y0111000D03*
X0075300Y0111000D03*
X0075300Y0116000D03*
X0075300Y0121000D03*
X0075300Y0126000D03*
X0075300Y0131000D03*
X0075300Y0136000D03*
X0075300Y0141000D03*
X0146700Y0141000D03*
X0146700Y0146000D03*
X0146700Y0151000D03*
X0146700Y0156000D03*
X0146700Y0161000D03*
X0146700Y0166000D03*
X0165300Y0166000D03*
X0165300Y0161000D03*
X0165300Y0156000D03*
X0165300Y0151000D03*
X0165300Y0146000D03*
X0165300Y0141000D03*
X0165300Y0136000D03*
X0146700Y0136000D03*
D19*
X0136000Y0085300D03*
X0131000Y0085300D03*
X0126000Y0085300D03*
X0121000Y0085300D03*
X0116000Y0085300D03*
X0111000Y0085300D03*
X0106000Y0085300D03*
X0106000Y0066700D03*
X0111000Y0066700D03*
X0116000Y0066700D03*
X0121000Y0066700D03*
X0126000Y0066700D03*
X0131000Y0066700D03*
X0136000Y0066700D03*
D20*
X0106000Y0186000D03*
X0096000Y0186000D03*
X0086000Y0186000D03*
X0076000Y0186000D03*
X0076000Y0216000D03*
X0086000Y0216000D03*
X0096000Y0216000D03*
X0106000Y0216000D03*
D21*
X0096000Y0216000D02*
X0081000Y0206000D01*
X0076000Y0206000D02*
X0056000Y0206000D01*
X0056000Y0216000D01*
X0066000Y0216000D01*
X0056000Y0206000D02*
X0046512Y0206000D01*
X0046512Y0186000D01*
X0041000Y0180488D01*
X0041000Y0176000D01*
X0031512Y0171000D02*
X0031512Y0156000D01*
X0031512Y0141000D01*
X0031512Y0126000D01*
X0036512Y0126000D01*
X0046000Y0135488D01*
X0056188Y0135488D01*
X0056700Y0136000D01*
X0056700Y0131000D02*
X0066000Y0131000D01*
X0066000Y0121000D01*
X0075300Y0121000D01*
X0075300Y0116000D02*
X0071000Y0116000D01*
X0061000Y0106000D01*
X0056000Y0110300D02*
X0056000Y0101000D01*
X0056000Y0110300D02*
X0056700Y0111000D01*
X0056700Y0116000D02*
X0046000Y0116000D01*
X0041000Y0121000D02*
X0041000Y0106000D01*
X0046000Y0101000D01*
X0046000Y0091000D01*
X0096000Y0091000D01*
X0101000Y0096000D01*
X0121000Y0096000D01*
X0121000Y0085300D01*
X0116000Y0085300D02*
X0116000Y0076000D01*
X0126000Y0076000D01*
X0126000Y0066700D01*
X0121000Y0066700D02*
X0121000Y0056000D01*
X0111000Y0056000D02*
X0111000Y0066700D01*
X0106000Y0066700D02*
X0095300Y0056000D01*
X0091000Y0056000D01*
X0090488Y0055488D01*
X0090488Y0046000D01*
X0084976Y0051512D01*
X0076000Y0051512D01*
X0076000Y0040488D02*
X0076000Y0031512D01*
X0061000Y0031512D01*
X0061000Y0020488D02*
X0061512Y0020488D01*
X0071000Y0011000D01*
X0076000Y0016000D02*
X0076000Y0020488D01*
X0076000Y0016000D02*
X0081000Y0011000D01*
X0091000Y0011000D02*
X0091000Y0020488D01*
X0101000Y0011000D02*
X0106000Y0016000D01*
X0106000Y0020488D01*
X0106000Y0031512D02*
X0115488Y0031512D01*
X0116000Y0031000D01*
X0111000Y0036000D02*
X0131000Y0036000D01*
X0136000Y0046000D02*
X0121512Y0046000D01*
X0111000Y0045488D02*
X0111000Y0036000D01*
X0106000Y0031512D02*
X0091000Y0031512D01*
X0076000Y0031512D01*
X0100488Y0047024D02*
X0110488Y0046000D01*
X0111000Y0045488D01*
X0101512Y0046000D02*
X0100488Y0047024D01*
X0086000Y0066000D02*
X0086000Y0076000D01*
X0111000Y0076000D01*
X0111000Y0085300D01*
X0106000Y0085300D02*
X0085812Y0085300D01*
X0076512Y0076000D01*
X0076512Y0085488D01*
X0076000Y0086000D01*
X0065488Y0076000D02*
X0065488Y0066512D01*
X0066000Y0066000D01*
X0086000Y0066000D01*
X0065488Y0076000D02*
X0051512Y0076000D01*
X0051000Y0076512D01*
X0051000Y0065488D02*
X0041512Y0065488D01*
X0041000Y0066000D01*
X0031512Y0066000D02*
X0031512Y0081000D01*
X0031512Y0096000D01*
X0041000Y0096000D01*
X0031512Y0096000D02*
X0031512Y0111000D01*
X0041000Y0121000D02*
X0046000Y0126000D01*
X0056700Y0126000D01*
X0056700Y0121000D02*
X0066000Y0121000D01*
X0066000Y0131000D02*
X0075300Y0131000D01*
X0081000Y0131000D01*
X0086000Y0126000D01*
X0091000Y0126000D01*
X0086000Y0121000D02*
X0081000Y0126000D01*
X0075300Y0126000D01*
X0075300Y0116000D02*
X0085488Y0116000D01*
X0091000Y0111512D01*
X0091000Y0100488D02*
X0075812Y0110488D01*
X0075300Y0111000D01*
X0091000Y0100488D02*
X0106000Y0105488D01*
X0106000Y0116512D02*
X0097024Y0135488D01*
X0091000Y0135488D01*
X0090488Y0136000D01*
X0075300Y0136000D01*
X0075300Y0141000D02*
X0080812Y0146512D01*
X0091000Y0146512D01*
X0091000Y0156000D01*
X0086000Y0161000D01*
X0096000Y0156000D02*
X0095488Y0176000D01*
X0066000Y0176000D01*
X0066000Y0196000D01*
X0076000Y0186000D02*
X0076000Y0206000D01*
X0046512Y0206000D02*
X0041100Y0206000D01*
X0041100Y0209700D02*
X0041100Y0221000D01*
X0021000Y0221000D01*
X0021000Y0206000D01*
X0021512Y0206000D01*
X0030900Y0206000D02*
X0036000Y0206000D01*
X0035872Y0201003D01*
X0041100Y0201003D01*
X0041100Y0202300D01*
X0041000Y0196000D01*
X0035872Y0201003D02*
X0035488Y0186000D01*
X0011000Y0186000D01*
X0011000Y0191000D01*
X0011000Y0196000D02*
X0031000Y0196000D01*
X0031000Y0202300D01*
X0030900Y0202300D01*
X0030900Y0209700D02*
X0030900Y0216000D01*
X0031000Y0216000D01*
X0026000Y0216000D01*
X0010488Y0206000D02*
X0010488Y0201000D01*
X0011000Y0201000D01*
X0011000Y0196000D01*
X0020488Y0171000D02*
X0020488Y0170488D01*
X0011000Y0161000D01*
X0011000Y0151000D02*
X0015488Y0151000D01*
X0020488Y0156000D01*
X0020488Y0141000D02*
X0011000Y0141000D01*
X0011000Y0131000D02*
X0015488Y0131000D01*
X0020488Y0126000D01*
X0020488Y0111000D02*
X0011000Y0101512D01*
X0011000Y0101000D01*
X0011000Y0091000D02*
X0015488Y0091000D01*
X0020488Y0096000D01*
X0020488Y0081000D02*
X0011000Y0081000D01*
X0011000Y0071000D02*
X0016000Y0066000D01*
X0020488Y0066000D01*
X0020488Y0051000D02*
X0011000Y0051000D01*
X0011000Y0041000D02*
X0015488Y0041000D01*
X0020488Y0036000D01*
X0011000Y0031000D02*
X0020488Y0021512D01*
X0020488Y0021000D01*
X0011000Y0021000D02*
X0011000Y0011000D01*
X0011512Y0010488D01*
X0046000Y0010488D01*
X0046000Y0021512D02*
X0032024Y0021512D01*
X0031512Y0021000D01*
X0031512Y0036000D01*
X0031512Y0051000D01*
X0040488Y0051000D01*
X0040488Y0031512D01*
X0041000Y0031000D01*
X0051512Y0051000D02*
X0051000Y0051512D01*
X0051000Y0065488D01*
X0116000Y0066700D02*
X0116000Y0076000D01*
X0126000Y0076000D02*
X0126000Y0085300D01*
X0126000Y0096000D01*
X0156000Y0096000D01*
X0156000Y0121000D01*
X0156000Y0146000D01*
X0156000Y0156000D01*
X0165300Y0156000D01*
X0165300Y0151000D02*
X0176000Y0146000D01*
X0176000Y0141000D02*
X0165300Y0141000D01*
X0165300Y0146000D02*
X0156000Y0146000D01*
X0146700Y0146000D01*
X0146700Y0141000D02*
X0106000Y0151512D01*
X0110488Y0166000D01*
X0121512Y0166000D02*
X0135488Y0181000D01*
X0146700Y0166000D01*
X0146700Y0161000D02*
X0156000Y0161000D01*
X0156000Y0166000D01*
X0146512Y0181000D01*
X0166000Y0195488D01*
X0151000Y0195488D01*
X0136000Y0195488D01*
X0121000Y0195488D01*
X0126000Y0186000D02*
X0116000Y0176000D01*
X0106512Y0176000D02*
X0106000Y0186000D01*
X0121000Y0206512D02*
X0121000Y0216000D01*
X0126000Y0216000D01*
X0136000Y0216000D02*
X0136000Y0206512D01*
X0146000Y0216000D02*
X0151000Y0206512D01*
X0156000Y0216000D02*
X0166000Y0206512D01*
X0181000Y0206512D02*
X0186000Y0216000D01*
X0196000Y0216000D02*
X0196000Y0206512D01*
X0196000Y0195488D02*
X0211000Y0195488D01*
X0211000Y0181512D01*
X0216000Y0176512D01*
X0215488Y0166000D02*
X0206000Y0166000D01*
X0215488Y0166000D02*
X0216000Y0165488D01*
X0211000Y0151000D02*
X0211000Y0136000D01*
X0191000Y0116000D01*
X0191000Y0066000D01*
X0206000Y0066000D01*
X0151000Y0086000D02*
X0136700Y0086000D01*
X0136000Y0085300D01*
X0131000Y0085300D02*
X0131000Y0076000D01*
X0141000Y0076000D01*
X0146000Y0071000D01*
X0146000Y0021000D01*
X0151000Y0011000D02*
X0151000Y0086000D01*
X0136000Y0101000D02*
X0121000Y0101000D01*
X0126000Y0111000D02*
X0141000Y0111000D01*
X0136000Y0121000D02*
X0156000Y0121000D01*
X0166000Y0131000D02*
X0186000Y0131000D01*
X0181000Y0136000D02*
X0176000Y0141000D01*
X0186000Y0145488D02*
X0176000Y0155488D01*
X0176000Y0156000D01*
X0171000Y0161000D01*
X0165300Y0161000D01*
X0165300Y0166000D02*
X0176000Y0166000D01*
X0176000Y0161000D01*
X0181512Y0161000D01*
X0186000Y0156512D01*
X0195488Y0161512D01*
X0196000Y0161000D01*
X0201000Y0156000D02*
X0201512Y0181000D01*
X0190488Y0181000D02*
X0190488Y0175488D01*
X0186000Y0171000D01*
X0181000Y0166000D02*
X0180488Y0166000D01*
X0165488Y0181000D01*
X0181000Y0195488D01*
X0196000Y0195488D01*
X0190488Y0181000D02*
X0176512Y0181000D01*
X0156000Y0156000D02*
X0146700Y0156000D01*
X0116000Y0156000D01*
X0126000Y0151000D02*
X0146700Y0151000D01*
X0146700Y0136000D02*
X0146700Y0131700D01*
X0146000Y0131000D01*
X0146700Y0136000D02*
X0106000Y0140488D01*
X0106000Y0131000D02*
X0136000Y0131000D01*
X0136000Y0121000D01*
X0166000Y0131000D02*
X0166000Y0135300D01*
X0165300Y0136000D01*
X0186000Y0145488D02*
X0201000Y0156000D01*
X0211000Y0206512D02*
X0206000Y0211512D01*
X0206000Y0216000D01*
X0071000Y0166512D02*
X0067024Y0166512D01*
X0056512Y0166000D01*
X0056000Y0165488D01*
X0056000Y0156000D01*
X0066000Y0150488D02*
X0066000Y0146000D01*
X0066000Y0150488D02*
X0071000Y0155488D01*
X0056700Y0141000D02*
X0051512Y0141000D01*
X0046000Y0146512D01*
X0046000Y0165488D01*
X0045488Y0166000D01*
X0131000Y0066700D02*
X0131000Y0051000D01*
X0136000Y0046000D02*
X0141000Y0046000D01*
X0136000Y0046000D02*
X0136000Y0066700D01*
X0131000Y0011000D02*
X0151000Y0011000D01*
D22*
X0146000Y0021000D03*
X0131000Y0011000D03*
X0116000Y0031000D03*
X0131000Y0036000D03*
X0141000Y0046000D03*
X0131000Y0051000D03*
X0121000Y0056000D03*
X0111000Y0056000D03*
X0076000Y0086000D03*
X0061000Y0106000D03*
X0056000Y0101000D03*
X0041000Y0096000D03*
X0046000Y0116000D03*
X0041000Y0121000D03*
X0066000Y0146000D03*
X0056000Y0156000D03*
X0041000Y0176000D03*
X0041000Y0196000D03*
X0066000Y0196000D03*
X0081000Y0206000D03*
X0116000Y0176000D03*
X0126000Y0186000D03*
X0116000Y0156000D03*
X0126000Y0151000D03*
X0106000Y0131000D03*
X0091000Y0126000D03*
X0086000Y0121000D03*
X0096000Y0156000D03*
X0086000Y0161000D03*
X0126000Y0111000D03*
X0121000Y0101000D03*
X0136000Y0101000D03*
X0141000Y0111000D03*
X0146000Y0131000D03*
X0176000Y0146000D03*
X0181000Y0136000D03*
X0186000Y0131000D03*
X0211000Y0151000D03*
X0206000Y0166000D03*
X0196000Y0161000D03*
X0186000Y0171000D03*
X0181000Y0166000D03*
X0041000Y0066000D03*
X0041000Y0031000D03*
M02*
