%
M48
M72
T01C0.0236
T02C0.0240
T03C0.0320
T04C0.0400
%
T01
X6850Y4873
X5850Y5123
X5350Y5623
X3850Y5873
X3100Y6623
X5350Y6623
X8850Y9123
X10600Y10623
X8600Y11123
X6100Y10873
X12100Y13373
X13100Y12373
X16100Y10373
X17850Y11373
X20100Y10873
X22350Y12873
X20600Y13373
X20600Y14373
X22350Y15373
X26600Y13123
X20100Y7873
X22600Y6123
X23600Y6123
X24600Y4373
X23600Y2123
X19850Y4373
X19100Y4373
X17100Y4873
X15100Y3873
X15350Y2873
X17100Y3123
X17100Y2123
X18850Y2123
X10100Y5373
X9850Y6623
X14100Y7873
X16100Y8373
X14100Y9373
X16600Y14873
X13100Y15373
X9100Y14873
X8100Y2123
X9100Y1873
T02
X14100Y13873
X14100Y14873
T03
X5100Y14873
X4100Y14873
X3100Y14873
X2100Y14873
X2100Y11873
X3100Y11873
X4100Y11873
X5100Y11873
T04
X1100Y2623
X1100Y3873
X1100Y7873
X1100Y8873
X1100Y11873
X1100Y14873
X6600Y13873
X6600Y12373
X28100Y13373
X28100Y8373
X28100Y3373
M30
