G75*
%MOIN*%
%OFA0B0*%
%FSLAX25Y25*%
%IPPOS*%
%LPD*%
%AMOC8*
5,1,8,0,0,1.08239X$1,22.5*
%
%ADD10C,0.00000*%
%ADD11OC8,0.06400*%
%ADD12C,0.05600*%
%ADD13C,0.01600*%
%ADD14C,0.01000*%
%ADD15R,0.04362X0.04362*%
%ADD16R,0.04400X0.04400*%
D10*
X0001000Y0008733D02*
X0001000Y0158694D01*
X0289701Y0158694D01*
X0289701Y0008733D01*
X0001000Y0008733D01*
D11*
X0011000Y0026233D03*
X0011000Y0038733D03*
X0011000Y0078733D03*
X0011000Y0088733D03*
X0011000Y0118733D03*
X0011000Y0148733D03*
X0066000Y0138733D03*
X0066000Y0123733D03*
X0281000Y0133733D03*
X0281000Y0083733D03*
X0281000Y0033733D03*
D12*
X0051000Y0118733D03*
X0041000Y0118733D03*
X0031000Y0118733D03*
X0021000Y0118733D03*
X0021000Y0148733D03*
X0031000Y0148733D03*
X0041000Y0148733D03*
X0051000Y0148733D03*
D13*
X0021000Y0148733D02*
X0011000Y0148733D01*
X0026000Y0123733D02*
X0041000Y0123733D01*
X0041000Y0118733D01*
D14*
X0041000Y0123733D02*
X0041000Y0138733D01*
X0056000Y0138733D01*
X0056000Y0148733D01*
X0091000Y0148733D01*
X0091000Y0123733D01*
X0131000Y0123733D01*
X0121000Y0133733D02*
X0191000Y0133733D01*
X0191000Y0138733D01*
X0223500Y0138733D01*
X0223500Y0128733D01*
X0206000Y0133733D02*
X0206000Y0113733D01*
X0178500Y0113733D01*
X0161000Y0111233D02*
X0161000Y0103733D01*
X0161000Y0111233D02*
X0086000Y0111233D01*
X0086000Y0091233D01*
X0088500Y0091233D01*
X0106000Y0098733D02*
X0141000Y0098733D01*
X0141000Y0093733D01*
X0161000Y0083733D02*
X0061000Y0083733D01*
X0061000Y0108733D01*
X0053500Y0108733D01*
X0053500Y0066233D01*
X0061000Y0066233D01*
X0061000Y0063733D01*
X0058500Y0063733D01*
X0058500Y0058733D01*
X0181000Y0058733D01*
X0181000Y0038733D01*
X0171000Y0038733D01*
X0171000Y0031233D01*
X0188500Y0021233D02*
X0236000Y0021233D01*
X0246000Y0043733D02*
X0198500Y0043733D01*
X0191000Y0043733D02*
X0191000Y0053733D01*
X0221000Y0053733D01*
X0221000Y0063733D01*
X0226000Y0063733D01*
X0226000Y0061233D01*
X0236000Y0061233D02*
X0236000Y0078733D01*
X0201000Y0078733D01*
X0201000Y0108733D01*
X0266000Y0108733D01*
X0266000Y0131233D01*
X0223500Y0153733D02*
X0131000Y0153733D01*
X0141000Y0148733D02*
X0141000Y0138733D01*
X0166000Y0148733D02*
X0206000Y0148733D01*
X0206000Y0143733D01*
X0106000Y0106233D02*
X0106000Y0098733D01*
X0141000Y0078733D02*
X0141000Y0063733D01*
X0098500Y0063733D01*
X0098500Y0066233D01*
X0101000Y0053733D02*
X0171000Y0053733D01*
X0171000Y0048733D01*
X0151000Y0048733D02*
X0151000Y0038733D01*
X0151000Y0048733D02*
X0068500Y0048733D01*
X0058500Y0051233D02*
X0058500Y0058733D01*
X0058500Y0051233D01*
X0053500Y0056233D02*
X0053500Y0058733D01*
X0038500Y0058733D01*
X0031000Y0066233D02*
X0031000Y0021233D01*
X0081000Y0021233D01*
X0091000Y0018733D02*
X0091000Y0028733D01*
X0153500Y0028733D01*
X0031000Y0066233D02*
X0031000Y0108733D01*
X0011000Y0108733D01*
X0011000Y0118733D01*
X0016000Y0123733D01*
X0026000Y0123733D01*
D15*
X0061000Y0108733D03*
X0086000Y0111233D03*
X0106000Y0106233D03*
X0088500Y0091233D03*
X0098500Y0066233D03*
X0101000Y0053733D03*
X0068500Y0048733D03*
X0058500Y0051233D03*
X0053500Y0056233D03*
X0038500Y0058733D03*
X0031000Y0066233D03*
X0053500Y0066233D03*
X0081000Y0021233D03*
X0091000Y0018733D03*
X0151000Y0038733D03*
X0153500Y0028733D03*
X0171000Y0031233D03*
X0171000Y0021233D03*
X0188500Y0021233D03*
X0191000Y0043733D03*
X0198500Y0043733D03*
X0171000Y0048733D03*
X0141000Y0078733D03*
X0161000Y0083733D03*
X0141000Y0093733D03*
X0161000Y0103733D03*
X0178500Y0113733D03*
X0201000Y0108733D03*
X0223500Y0128733D03*
X0206000Y0133733D03*
X0206000Y0143733D03*
X0223500Y0153733D03*
X0266000Y0131233D03*
X0201000Y0078733D03*
X0226000Y0061233D03*
X0236000Y0061233D03*
X0246000Y0043733D03*
X0236000Y0021233D03*
X0131000Y0123733D03*
X0121000Y0133733D03*
X0131000Y0153733D03*
X0166000Y0148733D03*
X0091000Y0148733D03*
D16*
X0141000Y0148733D03*
X0141000Y0138733D03*
M02*
