G75*
%MOIN*%
%OFA0B0*%
%FSLAX25Y25*%
%IPPOS*%
%LPD*%
%AMOC8*
5,1,8,0,0,1.08239X$1,22.5*
%
%ADD10C,0.00000*%
%ADD11OC8,0.07600*%
%ADD12OC8,0.05600*%
%ADD13R,0.06890X0.01772*%
%ADD14R,0.02200X0.08600*%
%ADD15R,0.02200X0.05200*%
%ADD16C,0.05600*%
%ADD17C,0.01200*%
%ADD18C,0.04362*%
D10*
X0007825Y0003167D02*
X0007825Y0188127D01*
X0161526Y0188127D01*
X0161526Y0003167D01*
X0007825Y0003167D01*
D11*
X0017825Y0053167D03*
X0042825Y0088167D03*
X0052825Y0118167D03*
X0072825Y0153167D03*
X0152825Y0118167D03*
D12*
X0142825Y0113167D03*
X0132825Y0113167D03*
X0132825Y0123167D03*
X0132825Y0153167D03*
X0097825Y0178167D03*
X0087825Y0168167D03*
X0067825Y0178167D03*
X0047825Y0178167D03*
X0037825Y0178167D03*
X0017825Y0153167D03*
X0017825Y0143167D03*
X0027825Y0118167D03*
X0037825Y0118167D03*
X0027825Y0103167D03*
X0017825Y0103167D03*
X0017825Y0083167D03*
X0017825Y0073167D03*
X0027825Y0073167D03*
X0027825Y0083167D03*
X0052825Y0068167D03*
X0062825Y0083167D03*
X0062825Y0093167D03*
X0062825Y0103167D03*
X0072825Y0113167D03*
X0067825Y0128167D03*
X0087825Y0138167D03*
X0097825Y0128167D03*
X0102825Y0113167D03*
X0092825Y0103167D03*
X0092825Y0093167D03*
X0072825Y0083167D03*
X0052825Y0038167D03*
X0067825Y0033167D03*
X0067825Y0023167D03*
X0067825Y0013167D03*
X0097825Y0013167D03*
X0097825Y0023167D03*
X0097825Y0033167D03*
X0117825Y0043167D03*
X0117825Y0053167D03*
X0117825Y0083167D03*
X0117825Y0093167D03*
X0147825Y0088167D03*
X0147825Y0058167D03*
D13*
X0123337Y0147301D03*
X0123337Y0149860D03*
X0123337Y0152419D03*
X0123337Y0154978D03*
X0106014Y0154978D03*
X0106014Y0152419D03*
X0106014Y0149860D03*
X0106014Y0147301D03*
D14*
X0102825Y0067467D03*
X0097825Y0067467D03*
X0092825Y0067467D03*
X0087825Y0067467D03*
X0082825Y0067467D03*
X0077825Y0067467D03*
X0072825Y0067467D03*
X0072825Y0048867D03*
X0077825Y0048867D03*
X0082825Y0048867D03*
X0087825Y0048867D03*
X0092825Y0048867D03*
X0097825Y0048867D03*
X0102825Y0048867D03*
D15*
X0114125Y0118567D03*
X0121525Y0118567D03*
X0121525Y0127767D03*
X0117825Y0127767D03*
X0114125Y0127767D03*
D16*
X0057825Y0133167D03*
X0057825Y0143167D03*
X0057825Y0153167D03*
X0057825Y0163167D03*
X0027825Y0163167D03*
X0027825Y0153167D03*
X0027825Y0143167D03*
X0027825Y0133167D03*
D17*
X0017825Y0133167D01*
X0017825Y0143167D01*
X0017825Y0153167D02*
X0027825Y0153167D01*
X0052825Y0123167D02*
X0052825Y0118167D01*
X0052825Y0123167D02*
X0062825Y0123167D01*
X0062825Y0128167D01*
X0067825Y0128167D01*
X0072825Y0123167D02*
X0057825Y0108167D01*
X0037825Y0108167D01*
X0027825Y0118167D01*
X0027825Y0113167D01*
X0017825Y0103167D01*
X0017825Y0083167D01*
X0017825Y0073167D01*
X0017825Y0053167D01*
X0037825Y0053167D01*
X0052825Y0068167D01*
X0047825Y0078167D02*
X0072825Y0078167D01*
X0072825Y0073167D01*
X0072825Y0068167D01*
X0072825Y0067467D01*
X0072825Y0068167D02*
X0077825Y0067467D01*
X0082825Y0067467D02*
X0082825Y0063167D01*
X0077825Y0058167D01*
X0067825Y0058167D01*
X0067825Y0073167D01*
X0027825Y0073167D01*
X0042825Y0088167D02*
X0047825Y0083167D01*
X0047825Y0078167D01*
X0072825Y0078167D02*
X0072825Y0083167D01*
X0077825Y0083167D02*
X0077825Y0078167D01*
X0077825Y0083167D02*
X0082825Y0083167D01*
X0082825Y0108167D01*
X0112825Y0108167D01*
X0112825Y0113167D02*
X0112825Y0117267D01*
X0114125Y0118567D01*
X0121525Y0118567D02*
X0121525Y0109467D01*
X0122825Y0108167D01*
X0117825Y0103167D02*
X0107825Y0103167D01*
X0107825Y0083167D01*
X0092825Y0083167D01*
X0092825Y0078167D01*
X0087825Y0073167D01*
X0087825Y0067467D01*
X0092825Y0067467D02*
X0092825Y0058167D01*
X0087825Y0058167D02*
X0087825Y0048867D01*
X0092825Y0048867D02*
X0092825Y0038167D01*
X0067825Y0013167D01*
X0037825Y0013167D01*
X0052825Y0038167D02*
X0077825Y0038167D01*
X0077825Y0048867D01*
X0082825Y0048867D02*
X0082825Y0058167D01*
X0082825Y0067467D02*
X0082825Y0078167D01*
X0087825Y0078167D01*
X0087825Y0093167D01*
X0092825Y0093167D01*
X0097825Y0067467D02*
X0102825Y0067467D01*
X0103525Y0068167D01*
X0117825Y0068167D01*
X0117825Y0083167D01*
X0132825Y0083167D02*
X0137825Y0088167D01*
X0137825Y0133167D01*
X0142825Y0138167D02*
X0132825Y0138167D01*
X0132825Y0128167D01*
X0121525Y0128167D01*
X0121525Y0127767D01*
X0117825Y0127767D02*
X0117825Y0103167D01*
X0121525Y0118567D02*
X0127425Y0118567D01*
X0127825Y0118167D01*
X0132825Y0113167D02*
X0132825Y0123167D01*
X0142825Y0113167D02*
X0142825Y0138167D01*
X0132825Y0138167D02*
X0127825Y0149860D01*
X0123337Y0149860D01*
X0123337Y0152419D02*
X0132825Y0152419D01*
X0132825Y0153167D01*
X0123337Y0154978D02*
X0122825Y0155489D01*
X0122825Y0163167D01*
X0123337Y0147301D02*
X0117825Y0141789D01*
X0117825Y0138167D01*
X0117825Y0127767D01*
X0114125Y0127767D02*
X0107425Y0127767D01*
X0102825Y0123167D01*
X0072825Y0123167D01*
X0087825Y0138167D02*
X0087825Y0148167D01*
X0089518Y0149860D01*
X0106014Y0149860D01*
X0106014Y0152419D02*
X0093573Y0152419D01*
X0087825Y0158167D01*
X0087825Y0168167D01*
X0097825Y0163167D02*
X0106014Y0154978D01*
X0106014Y0147301D02*
X0097825Y0139112D01*
X0097825Y0128167D01*
X0072825Y0153167D02*
X0072825Y0173167D01*
X0067825Y0178167D01*
X0097825Y0178167D02*
X0097825Y0163167D01*
X0112825Y0053167D02*
X0102825Y0048867D01*
X0097825Y0048867D01*
X0082825Y0048867D02*
X0082825Y0048167D01*
X0072825Y0048167D02*
X0072825Y0048867D01*
X0072825Y0048167D02*
X0067825Y0048167D01*
X0097825Y0023167D02*
X0117825Y0023167D01*
X0117825Y0043167D01*
X0117825Y0053167D02*
X0112825Y0053167D01*
X0097825Y0023167D02*
X0097825Y0013167D01*
D18*
X0067825Y0048167D03*
X0082825Y0058167D03*
X0087825Y0058167D03*
X0092825Y0058167D03*
X0077825Y0078167D03*
X0112825Y0108167D03*
X0112825Y0113167D03*
X0122825Y0108167D03*
X0127825Y0118167D03*
X0137825Y0133167D03*
X0117825Y0138167D03*
X0122825Y0163167D03*
X0132825Y0083167D03*
X0037825Y0013167D03*
M02*
