%
M48
M72
T01C0.0236
T02C0.0320
T03C0.0400
%
T01
X3782Y1317
X6782Y4817
X8282Y5817
X8782Y5817
X9282Y5817
X7782Y7817
X11282Y10817
X11282Y11317
X12282Y10817
X12782Y11817
X13782Y13317
X11782Y13817
X12282Y16317
X13282Y8317
T02
X11782Y8317
X11782Y9317
X10282Y11317
X9282Y10317
X9282Y9317
X7282Y8317
X6282Y8317
X6282Y9317
X6282Y10317
X7282Y11317
X6782Y12817
X5782Y13317
X5782Y14317
X5782Y15317
X5782Y16317
X4782Y17817
X3782Y17817
X2782Y16317
X2782Y15317
X2782Y14317
X2782Y13317
X1782Y14317
X1782Y15317
X2782Y11817
X3782Y11817
X2782Y10317
X1782Y10317
X1782Y8317
X1782Y7317
X2782Y7317
X2782Y8317
X5282Y6817
X5282Y3817
X6782Y3317
X6782Y2317
X6782Y1317
X9782Y1317
X9782Y2317
X9782Y3317
X11782Y4317
X11782Y5317
X14782Y5817
X14782Y8817
X14282Y11317
X13282Y11317
X13282Y12317
X13282Y15317
X9782Y17817
X8782Y16817
X6782Y17817
X8782Y13817
X9782Y12817
T03
X7282Y15317
X5282Y11817
X4282Y8817
X1782Y5317
X15282Y11817
M30
