%
M48
M72
T01C0.0200
T02C0.0236
T03C0.0320
T04C0.0400
%
T01
X3800Y3934
X7925Y7684
X6300Y8184
X8175Y9559
X7800Y11809
X11675Y9684
X11925Y9059
X11175Y8184
X9550Y6934
X9550Y6434
X9925Y4684
X13050Y6559
X13050Y8184
X15050Y6684
X14675Y4309
X13175Y11434
X12675Y11434
X14300Y11684
T02
X8800Y10934
X8800Y10309
X7550Y9434
X5800Y9684
X5800Y10684
X6800Y11184
X6550Y7684
X5425Y7559
X4800Y5934
X6050Y5809
X7050Y5809
X3800Y4559
T03
X3300Y8684
X2300Y8684
X4300Y8684
X5300Y8684
X5300Y11684
X4300Y11684
X3300Y11684
X2300Y11684
T04
X1300Y11684
X1300Y8684
X1300Y7184
X1300Y6184
X1300Y5059
X1300Y4059
X6550Y10184
X14800Y10184
X14800Y11184
X14800Y9184
X14800Y8184
M30
