G75*
%MOIN*%
%OFA0B0*%
%FSLAX25Y25*%
%IPPOS*%
%LPD*%
%AMOC8*
5,1,8,0,0,1.08239X$1,22.5*
%
%ADD10C,0.00000*%
%ADD11OC8,0.06400*%
%ADD12R,0.05118X0.05906*%
%ADD13R,0.05906X0.05118*%
%ADD14R,0.06890X0.01772*%
%ADD15R,0.05118X0.06299*%
%ADD16R,0.06299X0.05118*%
%ADD17R,0.01400X0.05800*%
%ADD18R,0.02200X0.08600*%
%ADD19R,0.08600X0.02200*%
%ADD20C,0.05600*%
%ADD21C,0.01000*%
%ADD22OC8,0.04362*%
%ADD23C,0.00600*%
%ADD24OC8,0.04000*%
%ADD25C,0.01600*%
D10*
X0003000Y0031837D02*
X0003000Y0126798D01*
X0171701Y0126798D01*
X0171701Y0031837D01*
X0003000Y0031837D01*
D11*
X0013000Y0040587D03*
X0013000Y0050587D03*
X0013000Y0061837D03*
X0013000Y0071837D03*
X0013000Y0086837D03*
X0013000Y0116837D03*
X0065500Y0101837D03*
X0148000Y0101837D03*
X0148000Y0091837D03*
X0148000Y0081837D03*
X0148000Y0111837D03*
D12*
X0134240Y0089337D03*
X0126760Y0089337D03*
X0111740Y0090587D03*
X0104260Y0090587D03*
X0089240Y0069337D03*
X0081760Y0069337D03*
X0075490Y0086837D03*
X0068010Y0086837D03*
X0046740Y0079337D03*
X0039260Y0079337D03*
X0061760Y0040587D03*
X0069240Y0040587D03*
D13*
X0093000Y0040597D03*
X0093000Y0048078D03*
X0131750Y0048078D03*
X0131750Y0040597D03*
X0013000Y0098097D03*
X0013000Y0105578D03*
D14*
X0077488Y0105085D03*
X0077488Y0107644D03*
X0077488Y0110204D03*
X0077488Y0102526D03*
X0094811Y0102526D03*
X0094811Y0105085D03*
X0094811Y0107644D03*
X0094811Y0110204D03*
D15*
X0104260Y0111837D03*
X0111740Y0111837D03*
X0111740Y0101837D03*
X0104260Y0101837D03*
X0095490Y0095587D03*
X0088010Y0095587D03*
X0086760Y0086837D03*
X0094240Y0086837D03*
X0094240Y0078087D03*
X0086760Y0078087D03*
X0086760Y0056837D03*
X0094240Y0056837D03*
X0111760Y0043087D03*
X0119240Y0043087D03*
X0134260Y0056837D03*
X0141740Y0056837D03*
X0144240Y0066837D03*
X0136760Y0066837D03*
X0091740Y0119337D03*
X0084260Y0119337D03*
X0029240Y0071837D03*
X0021760Y0071837D03*
X0021760Y0061837D03*
X0029240Y0061837D03*
X0029240Y0050587D03*
X0021760Y0050587D03*
X0021760Y0040587D03*
X0029240Y0040587D03*
X0044260Y0040587D03*
X0051740Y0040587D03*
D16*
X0038000Y0059347D03*
X0038000Y0066828D03*
X0083000Y0048078D03*
X0083000Y0040597D03*
D17*
X0120293Y0098237D03*
X0122852Y0098237D03*
X0125411Y0098237D03*
X0127970Y0098237D03*
X0130530Y0098237D03*
X0133089Y0098237D03*
X0135648Y0098237D03*
X0138207Y0098237D03*
X0138207Y0120437D03*
X0135648Y0120437D03*
X0133089Y0120437D03*
X0130530Y0120437D03*
X0127970Y0120437D03*
X0125411Y0120437D03*
X0122852Y0120437D03*
X0120293Y0120437D03*
D18*
X0075500Y0067387D03*
X0070500Y0067387D03*
X0065500Y0067387D03*
X0060500Y0067387D03*
X0055500Y0067387D03*
X0050500Y0067387D03*
X0045500Y0067387D03*
X0045500Y0048787D03*
X0050500Y0048787D03*
X0055500Y0048787D03*
X0060500Y0048787D03*
X0065500Y0048787D03*
X0070500Y0048787D03*
X0075500Y0048787D03*
D19*
X0103700Y0051837D03*
X0103700Y0056837D03*
X0103700Y0061837D03*
X0103700Y0066837D03*
X0103700Y0071837D03*
X0103700Y0076837D03*
X0103700Y0081837D03*
X0122300Y0081837D03*
X0122300Y0076837D03*
X0122300Y0071837D03*
X0122300Y0066837D03*
X0122300Y0061837D03*
X0122300Y0056837D03*
X0122300Y0051837D03*
D20*
X0053000Y0086837D03*
X0043000Y0086837D03*
X0033000Y0086837D03*
X0023000Y0086837D03*
X0023000Y0116837D03*
X0033000Y0116837D03*
X0043000Y0116837D03*
X0053000Y0116837D03*
D21*
X0073000Y0116837D01*
X0073000Y0114337D01*
X0078000Y0114337D01*
X0078000Y0110204D01*
X0077488Y0110204D01*
X0077488Y0108087D02*
X0071750Y0108087D01*
X0068000Y0111837D01*
X0077488Y0108087D02*
X0077488Y0107644D01*
X0077488Y0102526D02*
X0066799Y0091837D01*
X0060500Y0091837D01*
X0060500Y0081837D01*
X0060500Y0067387D01*
X0065500Y0067387D02*
X0065500Y0076837D01*
X0070500Y0084347D02*
X0068010Y0086837D01*
X0070500Y0084347D02*
X0070500Y0067387D01*
X0070500Y0058087D01*
X0065500Y0061837D02*
X0065500Y0067387D01*
X0065500Y0061837D02*
X0065500Y0048787D01*
X0070500Y0048787D01*
X0070490Y0043778D01*
X0069240Y0040587D01*
X0061760Y0040587D02*
X0060510Y0043778D01*
X0060500Y0048787D01*
X0060500Y0058087D01*
X0055500Y0048787D02*
X0055500Y0067387D01*
X0055500Y0071837D01*
X0054250Y0075587D01*
X0049250Y0074337D02*
X0039250Y0074337D01*
X0036750Y0071837D01*
X0029240Y0071837D01*
X0038000Y0066828D02*
X0044940Y0066828D01*
X0045500Y0067387D01*
X0045500Y0061837D01*
X0048000Y0059337D01*
X0046750Y0055587D02*
X0038000Y0055587D01*
X0038000Y0059347D01*
X0046750Y0055587D02*
X0048000Y0054337D01*
X0050500Y0054337D01*
X0050500Y0048787D01*
X0050500Y0040578D01*
X0051740Y0040587D01*
X0045500Y0040578D02*
X0044260Y0040587D01*
X0045500Y0040578D02*
X0045500Y0048787D01*
X0038000Y0045587D02*
X0030490Y0039337D01*
X0029240Y0040587D01*
X0050500Y0067387D02*
X0049250Y0068637D01*
X0049250Y0074337D01*
X0046740Y0079337D02*
X0053000Y0085597D01*
X0053000Y0086837D01*
X0056750Y0091837D02*
X0055500Y0093087D01*
X0043000Y0093087D01*
X0015510Y0105578D01*
X0013000Y0105578D01*
X0013000Y0116837D01*
X0023000Y0116837D01*
X0013000Y0098097D02*
X0013000Y0086837D01*
X0033000Y0086837D02*
X0033000Y0085597D01*
X0039260Y0079337D01*
X0056750Y0091837D02*
X0060500Y0091837D01*
X0058000Y0096837D02*
X0058000Y0106837D01*
X0075500Y0094337D02*
X0075500Y0086847D01*
X0075490Y0086837D01*
X0075500Y0086828D01*
X0075500Y0067387D01*
X0088000Y0103087D02*
X0089998Y0105085D01*
X0094811Y0105085D01*
X0094811Y0107644D02*
X0089693Y0107644D01*
X0088000Y0109337D01*
X0091740Y0116837D02*
X0093000Y0116837D01*
X0091740Y0116837D02*
X0091740Y0119337D01*
D22*
X0088000Y0109337D03*
X0088000Y0103087D03*
X0075500Y0094337D03*
X0058000Y0096837D03*
X0058000Y0106837D03*
X0068000Y0111837D03*
X0065500Y0076837D03*
X0054250Y0075587D03*
X0048000Y0059337D03*
X0060500Y0058087D03*
X0070500Y0058087D03*
X0038000Y0045587D03*
D23*
X0038000Y0040587D02*
X0044260Y0040587D01*
X0038000Y0040587D02*
X0038000Y0039337D01*
X0055500Y0061837D02*
X0065500Y0061837D01*
X0055500Y0061837D02*
X0055500Y0067387D01*
X0060500Y0081837D02*
X0063000Y0081837D01*
X0079250Y0076837D02*
X0081760Y0074328D01*
X0081760Y0069337D01*
X0089240Y0069337D02*
X0089240Y0061837D01*
X0094240Y0056837D01*
X0094250Y0056837D01*
X0098000Y0060587D01*
X0102450Y0060587D01*
X0103700Y0061837D01*
X0103700Y0056837D02*
X0103700Y0051837D01*
X0103700Y0045037D01*
X0099250Y0040587D01*
X0093010Y0040587D01*
X0093000Y0040597D01*
X0085520Y0048078D01*
X0083000Y0048078D01*
X0086760Y0054318D02*
X0093000Y0048078D01*
X0098010Y0048078D01*
X0099250Y0046837D01*
X0111760Y0043087D02*
X0111760Y0061837D01*
X0116750Y0061837D01*
X0116750Y0085587D01*
X0104250Y0085587D01*
X0104260Y0085587D01*
X0104260Y0090587D01*
X0111740Y0090587D02*
X0111740Y0086837D01*
X0125500Y0086837D01*
X0125500Y0089337D01*
X0126760Y0089337D01*
X0123000Y0089337D01*
X0123000Y0093087D01*
X0122852Y0093087D01*
X0122852Y0098237D01*
X0123000Y0098385D01*
X0122852Y0098237D02*
X0122852Y0095450D01*
X0125411Y0094337D02*
X0140500Y0094337D01*
X0140500Y0091837D01*
X0148000Y0091837D01*
X0134240Y0089337D02*
X0134240Y0071837D01*
X0122300Y0071837D01*
X0122300Y0066837D02*
X0130500Y0065587D01*
X0134240Y0066837D02*
X0134240Y0071837D01*
X0134240Y0066837D02*
X0136760Y0066837D01*
X0144240Y0066837D02*
X0150500Y0066837D01*
X0144240Y0066837D02*
X0141740Y0056837D01*
X0134260Y0056837D02*
X0131750Y0056837D01*
X0131750Y0048078D01*
X0122300Y0048078D01*
X0122300Y0051837D01*
X0122300Y0056837D01*
X0122300Y0061837D02*
X0116750Y0061837D01*
X0103700Y0066837D02*
X0098000Y0066837D01*
X0095500Y0064337D01*
X0095500Y0069337D02*
X0098000Y0071837D01*
X0103700Y0071837D01*
X0103700Y0076837D02*
X0095490Y0076837D01*
X0094240Y0078087D01*
X0094240Y0079357D01*
X0086760Y0086837D01*
X0083000Y0086837D02*
X0081750Y0085587D01*
X0081750Y0079337D01*
X0079250Y0076837D01*
X0085510Y0076837D01*
X0086760Y0078087D01*
X0083000Y0086837D02*
X0083000Y0091837D01*
X0086750Y0095587D01*
X0088010Y0095587D01*
X0084250Y0098097D01*
X0084250Y0115587D01*
X0084260Y0116847D01*
X0084260Y0119337D01*
X0078000Y0118087D01*
X0084260Y0119337D02*
X0084260Y0124328D01*
X0084250Y0124337D01*
X0125500Y0124337D01*
X0125500Y0120526D01*
X0125411Y0120437D01*
X0127970Y0120437D02*
X0127970Y0114337D01*
X0126750Y0114337D01*
X0131750Y0114337D02*
X0133089Y0114337D01*
X0133089Y0120437D01*
X0135648Y0120437D02*
X0135648Y0109337D01*
X0116750Y0109337D01*
X0116750Y0111837D01*
X0111740Y0111837D01*
X0104240Y0119337D01*
X0091740Y0119337D01*
X0096445Y0111837D02*
X0094811Y0110204D01*
X0096445Y0111837D02*
X0104260Y0111837D01*
X0104260Y0101837D02*
X0095500Y0101837D01*
X0094811Y0102526D01*
X0096740Y0096837D02*
X0095490Y0095587D01*
X0096740Y0096837D02*
X0110500Y0096837D01*
X0111740Y0098078D01*
X0111740Y0101837D01*
X0115500Y0101837D01*
X0115500Y0103087D01*
X0127970Y0103087D01*
X0127970Y0101837D01*
X0127970Y0098237D01*
X0125411Y0098237D02*
X0125411Y0096837D01*
X0125411Y0094337D01*
X0125500Y0094337D01*
X0125411Y0094337D02*
X0125411Y0096837D01*
X0120293Y0098237D02*
X0120293Y0090587D01*
X0119250Y0090587D01*
X0113000Y0090587D02*
X0111740Y0090587D01*
X0113000Y0090587D02*
X0113000Y0096837D01*
X0116750Y0096837D01*
X0127970Y0101837D02*
X0127970Y0103087D01*
X0130530Y0106837D02*
X0130530Y0098237D01*
X0133089Y0098237D01*
X0130530Y0106837D02*
X0138000Y0106837D01*
X0138000Y0114337D01*
X0141750Y0114337D01*
X0141750Y0116837D01*
X0143000Y0116837D01*
X0138207Y0120437D02*
X0148000Y0120437D01*
X0148000Y0111837D01*
X0154250Y0124337D02*
X0154250Y0043087D01*
X0146750Y0043087D01*
X0131750Y0040597D02*
X0129260Y0043087D01*
X0119240Y0043087D01*
X0119250Y0043078D01*
X0119250Y0038087D01*
X0116750Y0035587D01*
X0083000Y0035587D01*
X0083000Y0040597D01*
X0086760Y0054318D02*
X0086760Y0056837D01*
X0099240Y0081837D02*
X0094240Y0086837D01*
X0099240Y0081837D02*
X0103700Y0081837D01*
X0111750Y0081837D01*
X0122300Y0081837D02*
X0122300Y0076837D01*
X0122300Y0081837D02*
X0130500Y0081837D01*
X0130530Y0120437D02*
X0130530Y0124337D01*
X0154250Y0124337D01*
X0130530Y0124337D02*
X0130500Y0124337D01*
X0083000Y0104337D02*
X0083000Y0096837D01*
X0081750Y0095587D01*
X0083000Y0104337D02*
X0082252Y0105085D01*
X0077488Y0105085D01*
X0043000Y0086837D02*
X0041760Y0086837D01*
X0041760Y0091837D01*
X0013000Y0091837D01*
X0013000Y0098097D01*
D24*
X0063000Y0081837D03*
X0079250Y0076837D03*
X0095500Y0069337D03*
X0095500Y0064337D03*
X0099250Y0046837D03*
X0130500Y0065587D03*
X0130500Y0081837D03*
X0119250Y0090587D03*
X0116750Y0096837D03*
X0111750Y0081837D03*
X0081750Y0095587D03*
X0078000Y0118087D03*
X0126750Y0114337D03*
X0131750Y0114337D03*
X0143000Y0116837D03*
X0150500Y0066837D03*
X0146750Y0043087D03*
X0038000Y0039337D03*
D25*
X0029240Y0040587D02*
X0029240Y0050587D01*
X0029240Y0061837D01*
X0029240Y0071837D01*
X0021760Y0071837D02*
X0013000Y0071837D01*
X0013000Y0061837D02*
X0021760Y0061837D01*
X0021760Y0050587D02*
X0013000Y0050587D01*
X0013000Y0040587D02*
X0021760Y0040587D01*
M02*
